<svg xmlns="http://www.w3.org/2000/svg" fill="rgb(220,220,220)" viewBox="0 0 128 128" x="0px" y="0px">

<path d="M119,62.109a.862.862,0,0,1-.859.86H97.026a.863.863,0,0,1-.86-.86A30.305,30.305,0,0,0,65.891,31.834a.863.863,0,0,1-.86-.86V9.859A.862.862,0,0,1,65.891,9,53.166,53.166,0,0,1,119,62.109Z"/><path d="M46.616,78.721a2.663,2.663,0,1,0,1.883.78A2.644,2.644,0,0,0,46.616,78.721Z"/><circle cx="59.655" cy="86.785" r="2.663"/><circle cx="59.655" cy="49.905" r="2.663"/><path d="M48.5,57.189a2.663,2.663,0,1,0-3.766,0A2.667,2.667,0,0,0,48.5,57.189Z"/><path d="M72.694,57.969a2.663,2.663,0,1,0-1.883-.78A2.646,2.646,0,0,0,72.694,57.969Z"/><path d="M41.215,65.682a2.663,2.663,0,1,0,2.664,2.663A2.665,2.665,0,0,0,41.215,65.682Z"/><path d="M110.174,64.687H97.026a2.585,2.585,0,0,1-2.578-2.578A28.594,28.594,0,0,0,65.891,33.552a2.586,2.586,0,0,1-2.579-2.578V17.826c-1.2-.095-2.423-.138-3.66-.138a50.656,50.656,0,1,0,50.66,50.66C110.312,67.12,110.269,65.891,110.174,64.687ZM59.652,97.455A29.111,29.111,0,1,1,88.767,68.348,29.146,29.146,0,0,1,59.652,97.455Z"/><path d="M75.432,68.345A2.663,2.663,0,1,0,78.1,65.682,2.666,2.666,0,0,0,75.432,68.345Z"/><path d="M59.655,40.952A27.393,27.393,0,1,0,87.048,68.345,27.423,27.423,0,0,0,59.655,40.952ZM69.6,52.208a4.381,4.381,0,1,1,3.1,7.48h0a4.382,4.382,0,0,1-3.1-7.48Zm-9.941-6.685a4.382,4.382,0,1,1-4.381,4.382A4.387,4.387,0,0,1,59.655,45.523ZM43.518,52.208a4.38,4.38,0,1,1,0,6.2A4.386,4.386,0,0,1,43.518,52.208ZM36.833,68.345a4.382,4.382,0,1,1,4.382,4.382A4.387,4.387,0,0,1,36.833,68.345ZM49.715,84.482a4.382,4.382,0,1,1,0-6.2A4.368,4.368,0,0,1,49.715,84.482Zm9.94,6.684a4.382,4.382,0,1,1,4.382-4.381A4.386,4.386,0,0,1,59.655,91.166Zm0-14.386a8.435,8.435,0,1,1,8.435-8.435A8.445,8.445,0,0,1,59.655,76.78Zm16.137,7.7a4.382,4.382,0,1,1,0-6.2A4.363,4.363,0,0,1,75.792,84.482Zm6.685-16.137A4.382,4.382,0,1,1,78.1,63.963,4.387,4.387,0,0,1,82.477,68.345Z"/><path d="M72.694,78.722a2.662,2.662,0,1,0,1.883.779A2.657,2.657,0,0,0,72.694,78.722Z"/></svg>